<svg width="289" height="161" viewBox="0 0 289 161" fill="none" xmlns="http://www.w3.org/2000/svg">
<path d="M0 160.19C0 160.19 28.9 160.19 48.1667 144.75C67.4333 129.31 77.0667 27.02 96.3333 27.02C115.6 27.02 125.233 32.81 144.5 32.81C163.767 32.81 173.4 0 192.667 0C211.933 0 221.567 79.902 240.833 111.94C260.1 143.978 289 160.19 289 160.19C289 160.19 260.1 160.19 240.833 160.19C221.567 160.19 211.933 160.19 192.667 160.19C173.4 160.19 163.767 160.19 144.5 160.19C125.233 160.19 115.6 160.19 96.3333 160.19C77.0667 160.19 67.4333 160.19 48.1667 160.19C28.9 160.19 0 160.19 0 160.19Z" fill="#E3A6D9" fill-opacity="0.8"/>
</svg>
