<svg width="31" height="38" viewBox="0 0 31 38" fill="none" xmlns="http://www.w3.org/2000/svg">
<path fill-rule="evenodd" clip-rule="evenodd" d="M30.0146 1.12505C30.6444 1.83605 30.9992 2.8047 30.9999 3.8156C30.9889 5.13042 30.3813 6.34476 29.3946 7.02406L28.1989 7.84512C30.0196 11.5285 29.9646 16.0441 28.0549 19.6684C28.8436 20.273 29.3675 21.234 29.4942 22.3084C29.6189 23.4683 29.2675 24.6289 28.5421 25.4537C27.918 26.16 27.074 26.5551 26.1949 26.5527H25.7853C24.7776 26.4242 23.8764 25.7776 23.3385 24.7969L23.2278 24.6074C20.4434 26.0384 17.2548 26.0384 14.4703 24.6074C13.9444 25.5961 13.0515 26.2567 12.0457 26.4011C11.902 26.4136 11.7576 26.4136 11.6139 26.4011C10.7333 26.4002 9.88908 26.0004 9.26679 25.2895C8.58221 24.5386 8.22287 23.4813 8.28477 22.4001C8.34666 21.3189 8.82348 20.324 9.58786 19.681C8.62323 17.8409 8.11431 15.7367 8.11536 13.5925C8.11933 12.2592 8.31763 10.9358 8.70215 9.67672C7.98505 9.32093 7.39545 8.69724 7.03036 7.90828C6.57822 6.92182 6.51943 5.76124 6.86898 4.72192C7.21852 3.68261 7.94268 2.8648 8.85714 2.47664C9.982 2.01352 11.2365 2.24253 12.1786 3.08296L12.7764 3.63876C14.5629 2.26592 16.6675 1.53152 18.8214 1.52926C20.6817 1.52586 22.5102 2.07899 24.1246 3.13349L24.7889 1.87032C25.3113 0.855532 26.2173 0.175269 27.2409 0.0292946C28.2644 -0.11668 29.2893 0.288204 30.0146 1.12505ZM25.7963 6.54402L28.2541 4.87663V4.864C28.5762 4.64051 28.7764 4.24547 28.7856 3.81557C28.7923 3.47619 28.6714 3.14976 28.4534 2.91872C28.2112 2.62644 27.8615 2.48326 27.5116 2.53315C27.1618 2.58304 26.8537 2.82004 26.682 3.17135L25.4641 5.53348C25.4137 5.64075 25.3544 5.74227 25.287 5.83664L23.7149 7.60508C23.507 7.84422 23.224 7.97873 22.9288 7.97873C22.6336 7.97873 22.3506 7.84422 22.1427 7.60508C21.7208 7.11391 21.7208 6.32782 22.1427 5.83664L22.7295 5.07874C20.1568 3.59372 17.1012 3.68871 14.6031 5.33138C14.9743 5.78006 15.007 6.46899 14.6806 6.96087C14.4977 7.22484 14.23 7.39464 13.9369 7.43258C13.6439 7.47052 13.3497 7.37348 13.1195 7.16297L10.7835 5.07874C10.3568 4.74806 9.79086 4.77402 9.38882 5.14272C8.98678 5.51143 8.84288 6.13643 9.0342 6.68297C9.21062 7.0608 9.52867 7.32597 9.89777 7.40297L12.3335 7.78193C12.9449 7.83076 13.4059 8.43589 13.3631 9.13352C13.3203 9.83115 12.7899 10.3571 12.1785 10.3083H12.0124L10.9053 10.1314C9.97278 12.8194 10.2024 15.8512 11.5253 18.3168L12.2781 17.7989L12.7099 17.3189C12.9851 16.9635 13.4116 16.8139 13.8142 16.9316C14.2168 17.0492 14.5278 17.4142 14.6195 17.8768C14.7111 18.3393 14.568 18.8214 14.2488 19.1252L13.7285 19.7063C13.6692 19.775 13.6022 19.8345 13.5292 19.8831L11.0713 21.5758C10.7973 21.7706 10.6114 22.0922 10.5625 22.4564C10.5135 22.8205 10.6064 23.1909 10.8167 23.4705C11.0644 23.7594 11.4184 23.8955 11.7688 23.8368C12.1157 23.7914 12.4234 23.562 12.5992 23.2179L13.8835 20.7673C13.9321 20.6855 13.9878 20.6093 14.0495 20.54L14.7913 19.6936C15.2306 19.2644 15.8854 19.2933 16.2943 19.7599C16.7033 20.2264 16.7286 20.9735 16.3524 21.4747L15.6992 22.2326L15.6217 22.3715C17.6876 23.3063 19.9883 23.3063 22.0542 22.3715L21.8438 21.9673C21.5261 21.3772 21.6842 20.6053 22.1981 20.2368C22.4553 20.0258 22.7795 19.9506 23.0885 20.0303C23.3975 20.11 23.6618 20.3369 23.8145 20.6536L25.3091 23.42C25.4899 23.7545 25.7968 23.9739 26.1395 24.0137C26.4809 24.0673 26.8246 23.9366 27.0695 23.66C27.3094 23.3887 27.4276 23.0073 27.3906 22.6242C27.3442 22.2377 27.144 21.8974 26.8481 21.7021L24.6338 20.2621C24.2487 20.0635 23.9963 19.6321 23.9832 19.1502C23.97 18.6682 24.1985 18.2198 24.5721 17.9944C24.9457 17.7689 25.3992 17.8058 25.7409 18.0894L26.1727 18.3673C27.6319 15.6199 27.7367 12.2053 26.4495 9.34826L26.0509 9.803C25.8402 10.0348 25.5576 10.162 25.2649 10.1567C24.9706 10.1586 24.6877 10.0268 24.4788 9.79037C24.2692 9.55319 24.1513 9.23033 24.1513 8.89352C24.1513 8.55671 24.2692 8.23385 24.4788 7.99667L25.5859 6.73349C25.6483 6.65982 25.719 6.59608 25.7963 6.54402Z" fill="#6266EA"/>
<path d="M24.1469 12.5062C24.4193 13.2015 24.4193 13.9962 24.1469 14.6915C23.8809 15.3094 24.0976 16.0565 24.6341 16.3715C24.7872 16.465 24.9586 16.5128 25.1323 16.5105C25.5532 16.5138 25.9393 16.2446 26.1287 15.8157C26.6925 14.4122 26.6925 12.7981 26.1287 11.3946C25.9487 10.9907 25.5936 10.7271 25.197 10.7029C24.8004 10.6788 24.4227 10.8979 24.2061 11.2777C23.9895 11.6574 23.9669 12.1402 24.1469 12.5441V12.5062Z" fill="#6266EA"/>
<path fill-rule="evenodd" clip-rule="evenodd" d="M13.2855 13.6305C13.2855 11.5376 14.7726 9.84096 16.6069 9.84096C17.4878 9.84096 18.3326 10.2402 18.9555 10.9509C19.5784 11.6616 19.9283 12.6254 19.9283 13.6305C19.9283 15.7234 18.4413 17.42 16.6069 17.42C14.7726 17.42 13.2855 15.7234 13.2855 13.6305ZM15.5 13.5546C15.5 14.2523 15.9957 14.8178 16.6071 14.8178C16.9007 14.8178 17.1824 14.6847 17.39 14.4478C17.5976 14.2109 17.7143 13.8896 17.7143 13.5546C17.7143 12.857 17.2186 12.2915 16.6071 12.2915C15.9957 12.2915 15.5 12.857 15.5 13.5546Z" fill="#6266EA"/>
<path fill-rule="evenodd" clip-rule="evenodd" d="M16.6071 30.9738C16.6071 28.5321 18.342 26.5527 20.4821 26.5527C22.6221 26.5527 24.357 28.5321 24.357 30.9738C24.357 33.4155 22.6221 35.3949 20.4821 35.3949C18.342 35.3949 16.6071 33.4155 16.6071 30.9738ZM18.8214 30.9738C18.8214 32.0202 19.5649 32.8685 20.4821 32.8685C21.3993 32.8685 22.1428 32.0202 22.1428 30.9738C22.1428 29.9273 21.3993 29.079 20.4821 29.079C19.5649 29.079 18.8214 29.9273 18.8214 30.9738Z" fill="#6266EA"/>
<path fill-rule="evenodd" clip-rule="evenodd" d="M0 32.237C0 29.0976 2.23057 26.5527 4.98213 26.5527C7.73115 26.5596 9.95817 29.1005 9.96425 32.237C9.96425 35.3763 7.73368 37.9212 4.98213 37.9212C2.23057 37.9212 0 35.3763 0 32.237ZM2.21439 32.237C2.21439 33.981 3.4536 35.3949 4.98224 35.3949C6.51088 35.3949 7.75009 33.981 7.75009 32.237C7.75009 30.4929 6.51088 29.079 4.98224 29.079C3.4536 29.079 2.21439 30.4929 2.21439 32.237Z" fill="#6266EA"/>
<path fill-rule="evenodd" clip-rule="evenodd" d="M6.64284 16.4473C6.64284 18.5402 5.15579 20.2368 3.32142 20.2368C1.48705 20.2368 0 18.5402 0 16.4473C0 14.3544 1.48705 12.6578 3.32142 12.6578C5.15579 12.6578 6.64284 14.3544 6.64284 16.4473ZM4.42867 16.4473C4.42867 15.7497 3.93299 15.1841 3.32153 15.1841C2.71007 15.1841 2.21439 15.7497 2.21439 16.4473C2.21439 17.1449 2.71007 17.7105 3.32153 17.7105C3.93299 17.7105 4.42867 17.1449 4.42867 16.4473Z" fill="#6266EA"/>
</svg>
