<svg width="47" height="40" viewBox="0 0 47 40" fill="none" xmlns="http://www.w3.org/2000/svg">
<rect width="47" height="40" fill="white"/>
<path d="M29.8642 10H14.5876C14.2631 10 14 10.3134 14 10.7C14 11.0866 14.2631 11.4 14.5876 11.4H29.8642C30.1888 11.4 30.4518 11.0866 30.4518 10.7C30.4518 10.3134 30.1888 10 29.8642 10Z" fill="#292A2D"/>
<path d="M14.5876 17.7H22.2259C22.5504 17.7 22.8135 17.3866 22.8135 17C22.8135 16.6134 22.5504 16.3 22.2259 16.3H14.5876C14.2631 16.3 14 16.6134 14 17C14 17.3866 14.2631 17.7 14.5876 17.7Z" fill="#292A2D"/>
<path d="M27.514 22.6H14.5876C14.2631 22.6 14 22.9134 14 23.3C14 23.6866 14.2631 24 14.5876 24H27.514C27.8385 24 28.1016 23.6866 28.1016 23.3C28.1016 22.9134 27.8385 22.6 27.514 22.6Z" fill="#292A2D"/>
</svg>
