<svg width="12" height="14" viewBox="0 0 12 14" fill="none" xmlns="http://www.w3.org/2000/svg">
<path fill-rule="evenodd" clip-rule="evenodd" d="M5.658 1.09468C5.3693 1.09468 5.08412 1.16286 4.80246 1.29922C4.5208 1.43558 4.26731 1.60933 4.04198 1.82047C3.81665 2.03161 3.63533 2.26035 3.49802 2.50668C3.36071 2.75301 3.29206 2.98614 3.29206 3.20608V5.31748C3.29206 5.73096 3.37479 6.25881 3.54027 6.90103C3.70574 7.54325 3.96452 8.0403 4.3166 8.3922C4.40814 8.48018 4.47679 8.59234 4.52256 8.72871C4.56833 8.86507 4.58417 9.00803 4.57009 9.15759C4.54897 9.29835 4.50496 9.42811 4.43806 9.54687C4.37117 9.66564 4.28491 9.75581 4.17929 9.8174L1.21129 11.5725C1.16904 11.5901 1.11095 11.6319 1.03701 11.6979C0.963074 11.7638 0.926106 11.8848 0.926106 12.0608V12.9185L10.3793 12.9053V12.0872C10.3793 11.8584 10.3353 11.7155 10.2473 11.6583C10.1593 11.6011 10.1118 11.5725 10.1047 11.5725L7.15785 9.83059C7.05222 9.76901 6.96421 9.67884 6.89379 9.56007C6.82338 9.4413 6.78113 9.30714 6.76704 9.15759C6.75296 9.00803 6.7688 8.86507 6.81457 8.72871C6.86034 8.59234 6.929 8.48018 7.02054 8.3922C7.3867 8.0403 7.64547 7.54105 7.79687 6.89443C7.94826 6.24781 8.02395 5.72216 8.02395 5.31748V3.20608C8.02395 2.97734 7.95354 2.73981 7.81271 2.49348C7.67188 2.24715 7.49056 2.02062 7.26875 1.81388C7.04694 1.60713 6.79345 1.43558 6.50827 1.29922C6.22308 1.16286 5.93967 1.09468 5.658 1.09468ZM5.658 0.25012C6.03121 0.25012 6.39912 0.338095 6.76176 0.514045C7.1244 0.689996 7.44831 0.918729 7.73349 1.20025C8.01867 1.48177 8.25104 1.79848 8.4306 2.15038C8.61016 2.50228 8.69994 2.85418 8.69994 3.20608V5.31748C8.69994 5.57261 8.67881 5.86732 8.63657 6.20163C8.59432 6.53593 8.5239 6.87683 8.42532 7.22434C8.32674 7.57184 8.19647 7.90614 8.03452 8.22725C7.87256 8.54836 7.6754 8.82328 7.44303 9.05201L10.3899 10.8071C10.3899 10.8071 10.5008 10.8841 10.7226 11.038C10.9444 11.192 11.0553 11.3921 11.0553 11.6385V12.9185C11.0553 13.1473 10.9902 13.343 10.8599 13.5057C10.7297 13.6685 10.573 13.7499 10.3899 13.7499H0.926106C0.735984 13.7499 0.575791 13.6685 0.445523 13.5057C0.315254 13.343 0.25012 13.1473 0.25012 12.9185V11.6385C0.25012 11.4097 0.362784 11.214 0.588113 11.0512C0.813443 10.8885 0.926106 10.8071 0.926106 10.8071L3.8941 9.05201C3.65469 8.81448 3.45401 8.52857 3.29206 8.19426C3.1301 7.85995 2.99807 7.51905 2.89597 7.17155C2.79387 6.82405 2.72169 6.48535 2.67944 6.15544C2.63719 5.82553 2.61607 5.54621 2.61607 5.31748V3.20608C2.61607 2.85418 2.70409 2.50228 2.88013 2.15038C3.05617 1.79848 3.28677 1.48177 3.57196 1.20025C3.85714 0.918729 4.1828 0.689996 4.54897 0.514045C4.91513 0.338095 5.2848 0.25012 5.658 0.25012Z" fill="white"/>
<path fill-rule="evenodd" clip-rule="evenodd" d="M5.658 1.09468C5.3693 1.09468 5.08412 1.16286 4.80246 1.29922C4.5208 1.43558 4.26731 1.60933 4.04198 1.82047C3.81665 2.03161 3.63533 2.26035 3.49802 2.50668C3.36071 2.75301 3.29206 2.98614 3.29206 3.20608V5.31748C3.29206 5.73096 3.37479 6.25881 3.54027 6.90103C3.70574 7.54325 3.96452 8.0403 4.3166 8.3922C4.40814 8.48018 4.47679 8.59234 4.52256 8.72871C4.56833 8.86507 4.58417 9.00803 4.57009 9.15759C4.54897 9.29835 4.50496 9.42811 4.43806 9.54687C4.37117 9.66564 4.28491 9.75581 4.17929 9.8174L1.21129 11.5725C1.16904 11.5901 1.11095 11.6319 1.03701 11.6979C0.963074 11.7638 0.926106 11.8848 0.926106 12.0608V12.9185L10.3793 12.9053V12.0872C10.3793 11.8584 10.3353 11.7155 10.2473 11.6583C10.1593 11.6011 10.1118 11.5725 10.1047 11.5725L7.15785 9.83059C7.05222 9.76901 6.96421 9.67884 6.89379 9.56007C6.82338 9.4413 6.78113 9.30714 6.76704 9.15759C6.75296 9.00803 6.7688 8.86507 6.81457 8.72871C6.86034 8.59234 6.929 8.48018 7.02054 8.3922C7.3867 8.0403 7.64547 7.54105 7.79687 6.89443C7.94826 6.24781 8.02395 5.72216 8.02395 5.31748V3.20608C8.02395 2.97734 7.95354 2.73981 7.81271 2.49348C7.67188 2.24715 7.49056 2.02062 7.26875 1.81388C7.04694 1.60713 6.79345 1.43558 6.50827 1.29922C6.22308 1.16286 5.93967 1.09468 5.658 1.09468ZM5.658 0.25012C6.03121 0.25012 6.39912 0.338095 6.76176 0.514045C7.1244 0.689996 7.44831 0.918729 7.73349 1.20025C8.01867 1.48177 8.25104 1.79848 8.4306 2.15038C8.61016 2.50228 8.69994 2.85418 8.69994 3.20608V5.31748C8.69994 5.57261 8.67881 5.86732 8.63657 6.20163C8.59432 6.53593 8.5239 6.87683 8.42532 7.22434C8.32674 7.57184 8.19647 7.90614 8.03452 8.22725C7.87256 8.54836 7.6754 8.82328 7.44303 9.05201L10.3899 10.8071C10.3899 10.8071 10.5008 10.8841 10.7226 11.038C10.9444 11.192 11.0553 11.3921 11.0553 11.6385V12.9185C11.0553 13.1473 10.9902 13.343 10.8599 13.5057C10.7297 13.6685 10.573 13.7499 10.3899 13.7499H0.926106C0.735984 13.7499 0.575791 13.6685 0.445523 13.5057C0.315254 13.343 0.25012 13.1473 0.25012 12.9185V11.6385C0.25012 11.4097 0.362784 11.214 0.588113 11.0512C0.813443 10.8885 0.926106 10.8071 0.926106 10.8071L3.8941 9.05201C3.65469 8.81448 3.45401 8.52857 3.29206 8.19426C3.1301 7.85995 2.99807 7.51905 2.89597 7.17155C2.79387 6.82405 2.72169 6.48535 2.67944 6.15544C2.63719 5.82553 2.61607 5.54621 2.61607 5.31748V3.20608C2.61607 2.85418 2.70409 2.50228 2.88013 2.15038C3.05617 1.79848 3.28677 1.48177 3.57196 1.20025C3.85714 0.918729 4.1828 0.689996 4.54897 0.514045C4.91513 0.338095 5.2848 0.25012 5.658 0.25012Z" fill="white"/>
<path d="M4.3166 8.3922L4.13974 8.56914L4.14328 8.57254L4.3166 8.3922ZM4.57009 9.15759L4.81782 9.19476L4.81911 9.18103L4.57009 9.15759ZM4.17929 9.8174L4.0533 9.60132L4.05197 9.6021L4.17929 9.8174ZM1.21129 11.5725L1.30745 11.8034L1.32357 11.7967L1.3386 11.7878L1.21129 11.5725ZM0.926106 12.9185H0.675985V13.169L0.926455 13.1686L0.926106 12.9185ZM10.3793 12.9053L10.3797 13.1554L10.6295 13.1551V12.9053H10.3793ZM10.1047 11.5725L9.97745 11.7878L10.0363 11.8226H10.1047V11.5725ZM7.15785 9.83059L7.28512 9.61527L7.28383 9.61452L7.15785 9.83059ZM7.02054 8.3922L7.19385 8.57254L7.02054 8.3922ZM7.44303 9.05201L7.26757 8.87376L7.03663 9.10109L7.31504 9.26691L7.44303 9.05201ZM10.3899 10.8071L10.5325 10.6016L10.5254 10.5967L10.5179 10.5922L10.3899 10.8071ZM0.926106 10.8071L0.798793 10.5918L0.788937 10.5976L0.779654 10.6044L0.926106 10.8071ZM3.8941 9.05201L4.02142 9.26731L4.30012 9.1025L4.07027 8.87446L3.8941 9.05201ZM5.658 0.844559C5.32845 0.844559 5.00621 0.922689 4.69347 1.0741L4.91145 1.52435C5.16204 1.40303 5.41015 1.3448 5.658 1.3448V0.844559ZM4.69347 1.0741C4.38941 1.2213 4.11494 1.40933 3.87095 1.63796L4.213 2.00299C4.41967 1.80933 4.65219 1.64986 4.91145 1.52435L4.69347 1.0741ZM3.87095 1.63796C3.62855 1.8651 3.43058 2.11396 3.27955 2.3849L3.71649 2.62846C3.84008 2.40674 4.00475 2.19813 4.213 2.00299L3.87095 1.63796ZM3.27955 2.3849C3.12721 2.6582 3.04193 2.93313 3.04193 3.20608H3.54218C3.54218 3.03915 3.59421 2.84782 3.71649 2.62846L3.27955 2.3849ZM3.04193 3.20608V5.31748H3.54218V3.20608H3.04193ZM3.04193 5.31748C3.04193 5.76075 3.13008 6.3115 3.29806 6.96344L3.78248 6.83862C3.6195 6.20611 3.54218 5.70118 3.54218 5.31748H3.04193ZM3.29806 6.96344C3.4711 7.63503 3.74722 8.17675 4.13978 8.56911L4.49341 8.2153C4.18182 7.90386 3.94039 7.45146 3.78248 6.83862L3.29806 6.96344ZM4.14328 8.57254C4.20207 8.62904 4.25078 8.70504 4.28544 8.8083L4.75968 8.64912C4.7028 8.47965 4.6142 8.33131 4.48991 8.21186L4.14328 8.57254ZM4.28544 8.8083C4.31959 8.91005 4.33203 9.0178 4.32107 9.13414L4.81911 9.18103C4.83632 8.99825 4.81707 8.82009 4.75968 8.64912L4.28544 8.8083ZM4.32274 9.12046C4.30593 9.23248 4.27144 9.33304 4.22013 9.42413L4.65599 9.66962C4.73848 9.52318 4.792 9.36421 4.81744 9.19471L4.32274 9.12046ZM4.22013 9.42413C4.17248 9.50872 4.11625 9.56462 4.0533 9.60132L4.30527 10.0335C4.45357 9.94701 4.56985 9.82256 4.65599 9.66962L4.22013 9.42413ZM4.05197 9.6021L1.08397 11.3572L1.3386 11.7878L4.3066 10.0327L4.05197 9.6021ZM1.11513 11.3416C1.03133 11.3765 0.94673 11.4432 0.870472 11.5112L1.20355 11.8845C1.23626 11.8553 1.26227 11.8343 1.28209 11.8201C1.30326 11.8048 1.31094 11.8019 1.30745 11.8034L1.11513 11.3416ZM0.870472 11.5112C0.714214 11.6507 0.675985 11.8652 0.675985 12.0608H1.17623C1.17623 11.9886 1.184 11.9407 1.19303 11.9112C1.20178 11.8825 1.20897 11.8796 1.20355 11.8845L0.870472 11.5112ZM0.675985 12.0608V12.9185H1.17623V12.0608H0.675985ZM0.926455 13.1686L10.3797 13.1554L10.379 12.6552L0.925757 12.6684L0.926455 13.1686ZM10.6295 12.9053V12.0872H10.1292V12.9053H10.6295ZM10.6295 12.0872C10.6295 11.9596 10.6175 11.8392 10.5854 11.7348C10.5533 11.6307 10.494 11.5202 10.3836 11.4485L10.111 11.868C10.0887 11.8535 10.0953 11.8431 10.1073 11.882C10.1192 11.9205 10.1292 11.986 10.1292 12.0872H10.6295ZM10.3836 11.4485C10.3389 11.4195 10.3021 11.3962 10.2746 11.3796C10.2612 11.3716 10.247 11.3633 10.2337 11.3563C10.2274 11.353 10.2173 11.3479 10.2054 11.3429C10.1995 11.3405 10.1897 11.3366 10.1774 11.333C10.1687 11.3304 10.141 11.3224 10.1047 11.3224V11.8226C10.085 11.8226 10.0691 11.8202 10.0596 11.8185C10.0495 11.8166 10.0412 11.8144 10.0357 11.8127C10.0249 11.8095 10.0168 11.8063 10.0131 11.8047C10.0088 11.803 10.0058 11.8015 10.0043 11.8008C10.0027 11.8 10.0017 11.7995 10.0015 11.7994C10.0013 11.7993 10.0024 11.7999 10.0053 11.8016C10.0081 11.8032 10.0119 11.8054 10.0167 11.8083C10.0367 11.8203 10.0677 11.8399 10.111 11.868L10.3836 11.4485ZM10.232 11.3572L7.28512 9.61528L7.03057 10.0459L9.97745 11.7878L10.232 11.3572ZM7.28383 9.61452C7.21952 9.57702 7.1605 9.51948 7.10894 9.43251L6.67864 9.68763C6.76791 9.8382 6.88493 9.961 7.03187 10.0467L7.28383 9.61452ZM7.10894 9.43251C7.05898 9.34824 7.02699 9.2502 7.01606 9.13414L6.51802 9.18103C6.53526 9.36409 6.58777 9.53437 6.67864 9.68763L7.10894 9.43251ZM7.01606 9.13414C7.00511 9.0178 7.01754 8.91005 7.05169 8.8083L6.57745 8.64912C6.52007 8.82009 6.50081 8.99825 6.51802 9.18103L7.01606 9.13414ZM7.05169 8.8083C7.08635 8.70504 7.13506 8.62904 7.19385 8.57254L6.84722 8.21186C6.72293 8.33131 6.63433 8.47965 6.57745 8.64912L7.05169 8.8083ZM7.19385 8.57254C7.60406 8.17831 7.88133 7.63085 8.0404 6.95145L7.55333 6.83741C7.40961 7.45124 7.16934 7.90229 6.84722 8.21186L7.19385 8.57254ZM8.0404 6.95145C8.19376 6.29641 8.27407 5.74963 8.27407 5.31748H7.77383C7.77383 5.6947 7.70275 6.19921 7.55333 6.83741L8.0404 6.95145ZM8.27407 5.31748V3.20608H7.77383V5.31748H8.27407ZM8.27407 3.20608C8.27407 2.92449 8.18715 2.64448 8.02985 2.36934L7.59557 2.61762C7.71993 2.83515 7.77383 3.0302 7.77383 3.20608H8.27407ZM8.02985 2.36934C7.8757 2.09972 7.67824 1.85363 7.43929 1.63091L7.09821 1.99684C7.30288 2.18761 7.46805 2.39458 7.59557 2.61762L8.02985 2.36934ZM7.43929 1.63091C7.19811 1.40611 6.92329 1.22043 6.61616 1.07357L6.40037 1.52487C6.66361 1.65074 6.89577 1.80815 7.09821 1.99684L7.43929 1.63091ZM6.61616 1.07357C6.30144 0.923083 5.98135 0.844559 5.658 0.844559V1.3448C5.89799 1.3448 6.14473 1.40264 6.40037 1.52487L6.61616 1.07357ZM5.658 0.500241C5.99042 0.500241 6.32119 0.578291 6.65258 0.739077L6.87095 0.289014C6.47705 0.0978983 6.072 0 5.658 0V0.500241ZM6.65258 0.739077C6.99077 0.903164 7.29217 1.11605 7.55778 1.37825L7.90921 1.02225C7.60445 0.721406 7.25804 0.476829 6.87095 0.289014L6.65258 0.739077ZM7.55778 1.37825C7.82421 1.64126 8.04058 1.93632 8.20781 2.26406L8.65339 2.0367C8.46151 1.66063 8.21314 1.32228 7.90921 1.02225L7.55778 1.37825ZM8.20781 2.26406C8.37163 2.58513 8.44982 2.89832 8.44982 3.20608H8.95006C8.95006 2.81003 8.84869 2.41944 8.65339 2.0367L8.20781 2.26406ZM8.44982 3.20608V5.31748H8.95006V3.20608H8.44982ZM8.44982 5.31748C8.44982 5.55942 8.42974 5.84328 8.38842 6.17027L8.88471 6.23299C8.92789 5.89136 8.95006 5.5858 8.95006 5.31748H8.44982ZM8.38842 6.17027C8.34785 6.49125 8.28009 6.81981 8.18469 7.15607L8.66595 7.2926C8.76771 6.93386 8.84078 6.58062 8.88471 6.23299L8.38842 6.17027ZM8.18469 7.15607C8.09044 7.48834 7.96595 7.80777 7.81119 8.11461L8.25784 8.33989C8.42699 8.00451 8.56304 7.65534 8.66595 7.2926L8.18469 7.15607ZM7.81119 8.11461C7.66025 8.41388 7.47862 8.66601 7.26757 8.87376L7.61849 9.23027C7.87218 8.98055 8.08487 8.68284 8.25784 8.33989L7.81119 8.11461ZM7.31504 9.26691L10.2619 11.022L10.5179 10.5922L7.57102 8.83712L7.31504 9.26691ZM10.3899 10.8071C10.2473 11.0126 10.2473 11.0126 10.2473 11.0126C10.2473 11.0126 10.2473 11.0126 10.2473 11.0126C10.2473 11.0126 10.2473 11.0126 10.2473 11.0126C10.2473 11.0126 10.2473 11.0126 10.2474 11.0126C10.2474 11.0127 10.2475 11.0127 10.2476 11.0128C10.2478 11.013 10.2481 11.0132 10.2486 11.0135C10.2494 11.0141 10.2507 11.015 10.2525 11.0162C10.2559 11.0186 10.2611 11.0222 10.2681 11.027C10.2819 11.0366 10.3027 11.0511 10.3305 11.0703C10.3859 11.1088 10.4691 11.1665 10.58 11.2435L10.8652 10.8326C10.7543 10.7556 10.6712 10.6979 10.6157 10.6594C10.588 10.6401 10.5672 10.6257 10.5533 10.6161C10.5464 10.6113 10.5412 10.6077 10.5377 10.6052C10.536 10.604 10.5347 10.6031 10.5338 10.6025C10.5334 10.6022 10.5331 10.602 10.5328 10.6019C10.5327 10.6018 10.5327 10.6017 10.5326 10.6017C10.5326 10.6017 10.5326 10.6017 10.5325 10.6017C10.5325 10.6016 10.5325 10.6016 10.5325 10.6016C10.5325 10.6016 10.5325 10.6016 10.5325 10.6016C10.5325 10.6016 10.5325 10.6016 10.3899 10.8071ZM10.58 11.2435C10.7421 11.356 10.8052 11.4829 10.8052 11.6385H11.3054C11.3054 11.3014 11.1468 11.028 10.8652 10.8326L10.58 11.2435ZM10.8052 11.6385V12.9185H11.3054V11.6385H10.8052ZM10.8052 12.9185C10.8052 13.0963 10.7559 13.2354 10.6647 13.3495L11.0552 13.662C11.2245 13.4505 11.3054 13.1982 11.3054 12.9185H10.8052ZM10.6647 13.3495C10.5744 13.4622 10.4859 13.4998 10.3899 13.4998V14C10.6601 14 10.8849 13.8748 11.0552 13.662L10.6647 13.3495ZM10.3899 13.4998H0.926106V14H10.3899V13.4998ZM0.926106 13.4998C0.819937 13.4998 0.728827 13.4594 0.640796 13.3495L0.250249 13.662C0.422756 13.8776 0.652031 14 0.926106 14V13.4998ZM0.640796 13.3495C0.54954 13.2354 0.500241 13.0963 0.500241 12.9185H0C0 13.1982 0.080968 13.4505 0.250249 13.662L0.640796 13.3495ZM0.500241 12.9185V11.6385H0V12.9185H0.500241ZM0.500241 11.6385C0.500241 11.5077 0.558546 11.3811 0.734566 11.254L0.44166 10.8485C0.167021 11.0469 0 11.3118 0 11.6385H0.500241ZM0.734566 11.254C0.847231 11.1726 0.931729 11.1116 0.988061 11.0709C1.01623 11.0506 1.03735 11.0353 1.05143 11.0251C1.05848 11.02 1.06376 11.0162 1.06728 11.0137C1.06904 11.0124 1.07036 11.0115 1.07124 11.0108C1.07168 11.0105 1.07201 11.0103 1.07223 11.0101C1.07234 11.01 1.07242 11.01 1.07248 11.0099C1.0725 11.0099 1.07252 11.0099 1.07254 11.0099C1.07254 11.0099 1.07255 11.0099 1.07255 11.0099C1.07255 11.0099 1.07256 11.0099 1.07256 11.0099C1.07256 11.0099 1.07256 11.0099 0.926106 10.8071C0.779654 10.6044 0.779653 10.6044 0.779652 10.6044C0.779651 10.6044 0.77965 10.6044 0.779648 10.6044C0.779645 10.6044 0.77964 10.6044 0.779633 10.6044C0.779619 10.6044 0.779599 10.6044 0.779571 10.6044C0.779516 10.6045 0.779433 10.6045 0.779323 10.6046C0.779103 10.6048 0.778773 10.605 0.778333 10.6053C0.777453 10.6059 0.776133 10.6069 0.774372 10.6082C0.770852 10.6107 0.76557 10.6145 0.758529 10.6196C0.744446 10.6298 0.723322 10.645 0.695156 10.6654C0.638823 10.7061 0.554325 10.7671 0.44166 10.8485L0.734566 11.254ZM1.05342 11.0224L4.02142 9.26731L3.76679 8.83672L0.798793 10.5918L1.05342 11.0224ZM4.07027 8.87446C3.85285 8.65875 3.66803 8.39665 3.51715 8.08521L3.06696 8.30331C3.23999 8.66048 3.45653 8.97021 3.71794 9.22957L4.07027 8.87446ZM3.51715 8.08521C3.36106 7.763 3.23406 7.43497 3.13595 7.10104L2.65599 7.24206C2.76208 7.60313 2.89914 7.9569 3.06696 8.30331L3.51715 8.08521ZM3.13595 7.10104C3.03724 6.76511 2.96797 6.43937 2.92754 6.12367L2.43135 6.18721C2.47542 6.53132 2.55049 6.88299 2.65599 7.24206L3.13595 7.10104ZM2.92754 6.12367C2.88609 5.80002 2.86619 5.53201 2.86619 5.31748H2.36595C2.36595 5.56041 2.3883 5.85104 2.43135 6.18721L2.92754 6.12367ZM2.86619 5.31748V3.20608H2.36595V5.31748H2.86619ZM2.86619 3.20608C2.86619 2.89741 2.94308 2.58359 3.10382 2.26228L2.65643 2.03848C2.46509 2.42097 2.36595 2.81094 2.36595 3.20608H2.86619ZM3.10382 2.26228C3.26737 1.93535 3.48163 1.64088 3.74767 1.37825L3.39624 1.02225C3.09192 1.32267 2.84496 1.66161 2.65643 2.03848L3.10382 2.26228ZM3.74767 1.37825C4.0129 1.11643 4.31572 0.903627 4.6573 0.739488L4.44063 0.288603C4.04989 0.476365 3.70138 0.721027 3.39624 1.02225L3.74767 1.37825ZM4.6573 0.739488C4.99269 0.57832 5.32554 0.500241 5.658 0.500241V0C5.24407 0 4.83756 0.0978687 4.44063 0.288603L4.6573 0.739488Z" fill="white"/>
</svg>
