<svg width="29" height="29" viewBox="0 0 29 29" fill="none" xmlns="http://www.w3.org/2000/svg">
<path d="M22.6321 20.2517V8.72418C22.6321 7.44955 21.5988 6.41626 20.3242 6.41626L8.79666 6.41626C7.52204 6.41626 6.48875 7.44955 6.48875 8.72418V20.2517C6.48875 21.5263 7.52204 22.5596 8.79666 22.5596H20.3242C21.5988 22.5596 22.6321 21.5263 22.6321 20.2517Z" stroke="white" stroke-miterlimit="10"/>
<path d="M20.3243 22.5717L19.1643 27.1875H9.94467L8.78467 22.5717H20.3243Z" stroke="white" stroke-miterlimit="10"/>
<path d="M8.78467 6.42833L9.94467 1.8125H19.1643L20.3243 6.42833H8.78467Z" stroke="white" stroke-miterlimit="10"/>
<path d="M24.94 12.1921H22.6321" stroke="white" stroke-width="2" stroke-miterlimit="10"/>
<path d="M24.94 16.8079H22.6321" stroke="white" stroke-width="2" stroke-miterlimit="10"/>
<path d="M15.8412 9.88416C15.5872 9.88301 15.337 9.94543 15.1133 10.0657C14.8896 10.186 14.6995 10.3604 14.5604 10.5729C14.4201 10.3643 14.2315 10.1927 14.0106 10.0728C13.7897 9.95287 13.543 9.88815 13.2917 9.88416C13.0881 9.88096 12.886 9.91828 12.697 9.99396C12.508 10.0696 12.336 10.1822 12.1909 10.325C12.0458 10.4678 11.9306 10.6381 11.852 10.8258C11.7734 11.0136 11.7329 11.2152 11.7329 11.4187C11.7329 13.7267 14.5604 14.5 14.5604 14.5C14.5604 14.5 17.3758 13.7267 17.3758 11.4187C17.3758 11.0117 17.2141 10.6214 16.9264 10.3336C16.6386 10.0458 16.2482 9.88416 15.8412 9.88416Z" fill="white"/>
<path d="M9.94458 17.9558H12.2525" stroke="white" stroke-width="2" stroke-miterlimit="10"/>
<path d="M13.4004 17.9558H15.7083" stroke="white" stroke-width="2" stroke-miterlimit="10"/>
<path d="M16.8562 17.9558H19.1641" stroke="white" stroke-width="2" stroke-miterlimit="10"/>
</svg>
