<svg width="289" height="99" viewBox="0 0 289 99" fill="none" xmlns="http://www.w3.org/2000/svg">
<path d="M0 98.43C0 98.43 28.9 42.46 48.1667 42.46C67.4333 42.46 77.0667 50.18 96.3333 50.18C115.6 50.18 125.233 0 144.5 0C163.767 0 173.4 32.81 192.667 32.81C211.933 32.81 221.567 19.3 240.833 19.3C260.1 19.3 289 98.43 289 98.43C289 98.43 260.1 98.43 240.833 98.43C221.567 98.43 211.933 98.43 192.667 98.43C173.4 98.43 163.767 98.43 144.5 98.43C125.233 98.43 115.6 98.43 96.3333 98.43C77.0667 98.43 67.4333 98.43 48.1667 98.43C28.9 98.43 0 98.43 0 98.43Z" fill="#6266EA"/>
</svg>
