<svg width="11" height="16" viewBox="0 0 11 16" fill="none" xmlns="http://www.w3.org/2000/svg">
<path fill-rule="evenodd" clip-rule="evenodd" d="M8.90878 6.06514C9.34284 6.06514 9.71342 6.25409 10.0205 6.63199C10.3276 7.0099 10.4812 7.4659 10.4812 8.00001V13.8046C10.4812 14.3387 10.3276 14.7947 10.0205 15.1726C9.71342 15.5505 9.34284 15.7395 8.90878 15.7395H1.83293C1.39888 15.7395 1.0283 15.5505 0.721184 15.1726C0.414071 14.7947 0.260517 14.3387 0.260517 13.8046V8.00001C0.260517 7.4659 0.414071 7.0099 0.721184 6.63199C1.0283 6.25409 1.39888 6.06514 1.83293 6.06514H2.22603V4.22096C2.22603 3.67677 2.30179 3.16283 2.45329 2.67911C2.6048 2.19539 2.81773 1.77466 3.09209 1.41691C3.36644 1.05915 3.69607 0.776988 4.08099 0.570399C4.4659 0.36381 4.89176 0.260517 5.35857 0.260517C5.81719 0.260517 6.241 0.36381 6.63001 0.570399C7.01902 0.776988 7.35275 1.05663 7.6312 1.40935C7.90965 1.76206 8.12667 2.18027 8.28228 2.66399C8.43788 3.14771 8.51568 3.6667 8.51568 4.22096V6.06514H8.90878ZM3.01235 4.22095V6.06513H7.72959V4.22095C7.72959 3.38452 7.51052 2.67658 7.07237 2.09713C6.63422 1.51767 6.063 1.22795 5.35869 1.22795C4.64619 1.22795 4.07701 1.52019 3.65115 2.10469C3.22528 2.68918 3.01235 3.3946 3.01235 4.22095ZM9.69513 13.8046V8.00002C9.69513 7.73801 9.61733 7.51127 9.46173 7.31979C9.30613 7.12832 9.12186 7.03259 8.90893 7.03259H1.83307C1.62014 7.03259 1.43588 7.12832 1.28027 7.31979C1.12467 7.51127 1.04687 7.73801 1.04687 8.00002V13.8046C1.04687 14.0667 1.12467 14.2934 1.28027 14.4849C1.43588 14.6763 1.62014 14.7721 1.83307 14.7721H8.90893C9.12186 14.7721 9.30613 14.6763 9.46173 14.4849C9.61733 14.2934 9.69513 14.0667 9.69513 13.8046ZM5.3709 8.96745C5.59202 8.96745 5.77833 9.06066 5.92984 9.24709C6.08135 9.43353 6.15711 9.66279 6.15711 9.93488C6.15711 10.1163 6.12025 10.28 6.04654 10.4262C5.97284 10.5723 5.87866 10.6857 5.764 10.7663V12.3535C5.764 12.4845 5.7251 12.5979 5.6473 12.6936C5.5695 12.7893 5.47736 12.8372 5.3709 12.8372C5.26443 12.8372 5.1723 12.7893 5.0945 12.6936C5.0167 12.5979 4.9778 12.4845 4.9778 12.3535V10.7663C4.86314 10.6857 4.76896 10.5723 4.69525 10.4262C4.62155 10.28 4.58469 10.1163 4.58469 9.93488C4.58469 9.66279 4.66045 9.43353 4.81196 9.24709C4.96346 9.06066 5.14978 8.96745 5.3709 8.96745Z" fill="white"/>
<path d="M2.22603 6.06514V6.32565H2.48655V6.06514H2.22603ZM8.51568 6.06514H8.25516V6.32565H8.51568V6.06514ZM3.01235 6.06513H2.75184V6.32565H3.01235V6.06513ZM7.72959 6.06513V6.32565H7.99011V6.06513H7.72959ZM5.764 10.7663L5.61416 10.5532L5.50349 10.631V10.7663H5.764ZM4.9778 10.7663H5.23831V10.631L5.12764 10.5532L4.9778 10.7663ZM8.90878 6.32565C9.25419 6.32565 9.55389 6.47087 9.81835 6.79629L10.2227 6.46769C9.87294 6.0373 9.43149 5.80462 8.90878 5.80462V6.32565ZM9.81835 6.79629C10.084 7.12318 10.2207 7.51956 10.2207 8.00001H10.7417C10.7417 7.41224 10.5713 6.89662 10.2227 6.46769L9.81835 6.79629ZM10.2207 8.00001V13.8046H10.7417V8.00001H10.2207ZM10.2207 13.8046C10.2207 14.2851 10.084 14.6815 9.81835 15.0083L10.2227 15.3369C10.5713 14.908 10.7417 14.3924 10.7417 13.8046H10.2207ZM9.81835 15.0083C9.55389 15.3338 9.25419 15.479 8.90878 15.479V16C9.43149 16 9.87294 15.7673 10.2227 15.3369L9.81835 15.0083ZM8.90878 15.479H1.83293V16H8.90878V15.479ZM1.83293 15.479C1.48753 15.479 1.18782 15.3338 0.923358 15.0083L0.51901 15.3369C0.868773 15.7673 1.31022 16 1.83293 16V15.479ZM0.923358 15.0083C0.657709 14.6815 0.521034 14.2851 0.521034 13.8046H0C0 14.3924 0.170433 14.908 0.51901 15.3369L0.923358 15.0083ZM0.521034 13.8046V8.00001H0V13.8046H0.521034ZM0.521034 8.00001C0.521034 7.51956 0.657709 7.12318 0.923358 6.79629L0.51901 6.46769C0.170433 6.89662 0 7.41224 0 8.00001H0.521034ZM0.923358 6.79629C1.18782 6.47087 1.48753 6.32565 1.83293 6.32565V5.80462C1.31022 5.80462 0.868773 6.0373 0.51901 6.46769L0.923358 6.79629ZM1.83293 6.32565H2.22603V5.80462H1.83293V6.32565ZM2.48655 6.06514V4.22096H1.96552V6.06514H2.48655ZM2.48655 4.22096C2.48655 3.70124 2.55885 3.21371 2.7019 2.75698L2.20469 2.60124C2.04472 3.11195 1.96552 3.65231 1.96552 4.22096H2.48655ZM2.7019 2.75698C2.84541 2.2988 3.0452 1.90615 3.29881 1.57544L2.88536 1.25837C2.59027 1.64317 2.3642 2.09198 2.20469 2.60124L2.7019 2.75698ZM3.29881 1.57544C3.55142 1.24605 3.85289 0.98849 4.20419 0.799944L3.95779 0.340854C3.53925 0.565486 3.18147 0.872256 2.88536 1.25837L3.29881 1.57544ZM4.20419 0.799944C4.54863 0.615075 4.93172 0.521034 5.35857 0.521034V0C4.8518 0 4.38317 0.112545 3.95779 0.340854L4.20419 0.799944ZM5.35857 0.521034C5.77641 0.521034 6.15802 0.614713 6.50782 0.800483L6.7522 0.340315C6.32399 0.112906 5.85798 0 5.35857 0V0.521034ZM6.50782 0.800483C6.86429 0.989787 7.17018 1.24581 7.42672 1.57077L7.83568 1.24792C7.53532 0.867457 7.17376 0.564189 6.7522 0.340315L6.50782 0.800483ZM7.42672 1.57077C7.68356 1.89611 7.88696 2.28581 8.03427 2.74377L8.53028 2.58421C8.36639 2.07473 8.13574 1.62801 7.83568 1.24792L7.42672 1.57077ZM8.03427 2.74377C8.18087 3.19948 8.25516 3.69133 8.25516 4.22096H8.7762C8.7762 3.64206 8.69489 3.09595 8.53028 2.58421L8.03427 2.74377ZM8.25516 4.22096V6.06514H8.7762V4.22096H8.25516ZM8.51568 6.32565H8.90878V5.80462H8.51568V6.32565ZM2.75184 4.22095V6.06513H3.27287V4.22095H2.75184ZM3.01235 6.32565H7.72959V5.80461H3.01235V6.32565ZM7.99011 6.06513V4.22095H7.46907V6.06513H7.99011ZM7.99011 4.22095C7.99011 3.33675 7.75756 2.57135 7.28017 1.94L6.86457 2.25425C7.26348 2.78181 7.46907 3.43228 7.46907 4.22095H7.99011ZM7.28017 1.94C6.7946 1.29783 6.14761 0.967429 5.35869 0.967429V1.48846C5.9784 1.48846 6.47385 1.73751 6.86457 2.25425L7.28017 1.94ZM5.35869 0.967429C4.56145 0.967429 3.91462 1.30067 3.44059 1.95127L3.8617 2.2581C4.2394 1.7397 4.73092 1.48846 5.35869 1.48846V0.967429ZM3.44059 1.95127C2.97775 2.58652 2.75184 3.34764 2.75184 4.22095H3.27287C3.27287 3.44155 3.47282 2.79184 3.8617 2.2581L3.44059 1.95127ZM9.95565 13.8046V8.00002H9.43462V13.8046H9.95565ZM9.95565 8.00002C9.95565 7.68216 9.85969 7.39641 9.6639 7.15549L9.25956 7.48409C9.37498 7.62612 9.43462 7.79386 9.43462 8.00002H9.95565ZM9.6639 7.15549C9.46763 6.91397 9.21326 6.77207 8.90893 6.77207V7.2931C9.03046 7.2931 9.14463 7.34267 9.25956 7.48409L9.6639 7.15549ZM8.90893 6.77207H1.83307V7.2931H8.90893V6.77207ZM1.83307 6.77207C1.52874 6.77207 1.27438 6.91397 1.0781 7.15549L1.48245 7.48409C1.59738 7.34267 1.71154 7.2931 1.83307 7.2931V6.77207ZM1.0781 7.15549C0.88231 7.39641 0.786351 7.68216 0.786351 8.00002H1.30738C1.30738 7.79386 1.36703 7.62612 1.48245 7.48409L1.0781 7.15549ZM0.786351 8.00002V13.8046H1.30738V8.00002H0.786351ZM0.786351 13.8046C0.786351 14.1225 0.88231 14.4083 1.0781 14.6492L1.48245 14.3206C1.36703 14.1785 1.30738 14.0108 1.30738 13.8046H0.786351ZM1.0781 14.6492C1.27438 14.8907 1.52874 15.0326 1.83307 15.0326V14.5116C1.71154 14.5116 1.59738 14.462 1.48245 14.3206L1.0781 14.6492ZM1.83307 15.0326H8.90893V14.5116H1.83307V15.0326ZM8.90893 15.0326C9.21326 15.0326 9.46763 14.8907 9.6639 14.6492L9.25956 14.3206C9.14463 14.462 9.03046 14.5116 8.90893 14.5116V15.0326ZM9.6639 14.6492C9.85969 14.4083 9.95565 14.1225 9.95565 13.8046H9.43462C9.43462 14.0108 9.37498 14.1785 9.25956 14.3206L9.6639 14.6492ZM5.3709 9.22796C5.50616 9.22796 5.62075 9.27983 5.72767 9.4114L6.13202 9.08279C5.93592 8.84149 5.67789 8.70693 5.3709 8.70693V9.22796ZM5.72767 9.4114C5.83646 9.54527 5.89659 9.71424 5.89659 9.93488H6.41762C6.41762 9.61134 6.32624 9.32179 6.13202 9.08279L5.72767 9.4114ZM5.89659 9.93488C5.89659 10.08 5.86738 10.2029 5.81394 10.3088L6.27915 10.5435C6.37312 10.3572 6.41762 10.1526 6.41762 9.93488H5.89659ZM5.81394 10.3088C5.75628 10.4231 5.68832 10.501 5.61416 10.5532L5.91385 10.9794C6.069 10.8703 6.18939 10.7214 6.27915 10.5435L5.81394 10.3088ZM5.50349 10.7663V12.3535H6.02452V10.7663H5.50349ZM5.50349 12.3535C5.50349 12.4286 5.48274 12.483 5.44513 12.5293L5.84947 12.8579C5.96746 12.7127 6.02452 12.5403 6.02452 12.3535H5.50349ZM5.44513 12.5293C5.408 12.575 5.38597 12.5767 5.3709 12.5767V13.0977C5.56876 13.0977 5.731 13.0037 5.84947 12.8579L5.44513 12.5293ZM5.3709 12.5767C5.35583 12.5767 5.3338 12.575 5.29667 12.5293L4.89232 12.8579C5.0108 13.0037 5.17304 13.0977 5.3709 13.0977V12.5767ZM5.29667 12.5293C5.25905 12.483 5.23831 12.4286 5.23831 12.3535H4.71728C4.71728 12.5403 4.77434 12.7127 4.89232 12.8579L5.29667 12.5293ZM5.23831 12.3535V10.7663H4.71728V12.3535H5.23831ZM5.12764 10.5532C5.05348 10.501 4.98551 10.4231 4.92785 10.3088L4.46265 10.5435C4.55241 10.7214 4.6728 10.8703 4.82795 10.9794L5.12764 10.5532ZM4.92785 10.3088C4.87442 10.2029 4.84521 10.08 4.84521 9.93488H4.32418C4.32418 10.1526 4.36868 10.3572 4.46265 10.5435L4.92785 10.3088ZM4.84521 9.93488C4.84521 9.71424 4.90533 9.54527 5.01413 9.4114L4.60978 9.08279C4.41556 9.32179 4.32418 9.61134 4.32418 9.93488H4.84521ZM5.01413 9.4114C5.12105 9.27983 5.23564 9.22796 5.3709 9.22796V8.70693C5.06391 8.70693 4.80588 8.84149 4.60978 9.08279L5.01413 9.4114Z" fill="white"/>
</svg>
