<svg width="20" height="17" viewBox="0 0 20 17" fill="none" xmlns="http://www.w3.org/2000/svg">
<path fill-rule="evenodd" clip-rule="evenodd" d="M2.92985 8.85916L5.08313 10.6529C5.19262 10.7551 5.24736 10.8726 5.24736 11.0055C5.24736 11.1384 5.19262 11.2559 5.08313 11.3581C5.0223 11.399 4.95539 11.4322 4.8824 11.4578C4.80941 11.4833 4.73642 11.4961 4.66342 11.4961C4.59043 11.4961 4.51744 11.4833 4.44444 11.4578C4.37145 11.4322 4.30454 11.399 4.24371 11.3581L0.794809 8.3839L4.24371 5.40967C4.36537 5.30747 4.50527 5.25636 4.66342 5.25636C4.82157 5.25636 4.96148 5.30747 5.08313 5.40967C5.19262 5.50166 5.24736 5.61664 5.24736 5.75462C5.24736 5.8926 5.19262 6.00758 5.08313 6.09957L2.96634 7.87797H13.0393C13.2097 7.87797 13.3496 7.92397 13.459 8.01595C13.5685 8.10794 13.6233 8.22548 13.6233 8.36857C13.6233 8.50144 13.5685 8.61642 13.459 8.71352C13.3496 8.81061 13.2097 8.85916 13.0393 8.85916H2.92985ZM18.3131 0.519059C18.6294 0.519059 18.9031 0.6136 19.1342 0.802684C19.3654 0.991768 19.4809 1.22429 19.4809 1.50025V15.2369C19.4809 15.5128 19.3654 15.7454 19.1342 15.9344C18.9031 16.1235 18.6294 16.2181 18.3131 16.2181H8.38605C8.05758 16.2181 7.78082 16.1235 7.55576 15.9344C7.3307 15.7454 7.21817 15.5128 7.21817 15.2369V10.8062H8.38605V14.639C8.38605 14.8025 8.456 14.943 8.5959 15.0606C8.73581 15.1781 8.90308 15.2369 9.09773 15.2369H17.6014C17.796 15.2369 17.9603 15.1781 18.0941 15.0606C18.2279 14.943 18.2948 14.8025 18.2948 14.639L18.2766 2.09816C18.2766 1.93463 18.2097 1.79409 18.0758 1.67655C17.942 1.55902 17.7778 1.50025 17.5831 1.50025H9.09773C8.90308 1.50025 8.73581 1.55902 8.5959 1.67655C8.456 1.79409 8.38605 1.93463 8.38605 2.09816V5.91559H7.21817V1.50025C7.21817 1.22429 7.3307 0.991768 7.55576 0.802684C7.78082 0.6136 8.05758 0.519059 8.38605 0.519059H18.3131Z" fill="white"/>
<path d="M2.92985 8.85916V8.3401H1.49577L2.59763 9.25797L2.92985 8.85916ZM5.08313 10.6529L5.43733 10.2735L5.42661 10.2635L5.41535 10.2541L5.08313 10.6529ZM5.08313 11.3581L5.37267 11.7889L5.40705 11.7658L5.43733 11.7376L5.08313 11.3581ZM4.24371 11.3581L3.90473 11.7512L3.92832 11.7715L3.95417 11.7889L4.24371 11.3581ZM0.794809 8.3839L0.455828 7.99082L1.01478e-05 8.3839L0.455828 8.77698L0.794809 8.3839ZM4.24371 5.40967L3.9098 5.01222L3.90473 5.01659L4.24371 5.40967ZM2.96634 7.87797L2.63245 7.48056L1.54159 8.39703H2.96634V7.87797ZM7.21817 10.8062V10.2871H6.69911V10.8062H7.21817ZM8.38605 10.8062H8.90511V10.2871H8.38605V10.8062ZM18.2948 14.639H18.8139L18.8139 14.6382L18.2948 14.639ZM18.2766 2.09816H17.7575L17.7575 2.09891L18.2766 2.09816ZM8.38605 5.91559V6.43465H8.90511V5.91559H8.38605ZM7.21817 5.91559H6.69911V6.43465H7.21817V5.91559ZM2.59763 9.25797L4.75091 11.0517L5.41535 10.2541L3.26207 8.46035L2.59763 9.25797ZM4.72893 11.0323C4.74245 11.0449 4.74055 11.0471 4.73578 11.0369C4.73352 11.032 4.73143 11.0261 4.73002 11.0196C4.72861 11.0132 4.7283 11.0082 4.7283 11.0055H5.76642C5.76642 10.7098 5.63721 10.4601 5.43733 10.2735L4.72893 11.0323ZM4.7283 11.0055C4.7283 11.0028 4.72861 10.9979 4.73002 10.9914C4.73143 10.985 4.73352 10.979 4.73578 10.9742C4.74055 10.9639 4.74245 10.9661 4.72893 10.9787L5.43733 11.7376C5.63721 11.551 5.76642 11.3013 5.76642 11.0055H4.7283ZM4.79359 10.9273C4.7714 10.9422 4.74449 10.9561 4.7109 10.9679L5.0539 11.9477C5.1663 11.9083 5.27321 11.8558 5.37267 11.7889L4.79359 10.9273ZM4.7109 10.9679C4.68973 10.9753 4.67462 10.977 4.66342 10.977V12.0152C4.79821 12.0152 4.92909 11.9914 5.0539 11.9477L4.7109 10.9679ZM4.66342 10.977C4.65223 10.977 4.63712 10.9753 4.61594 10.9679L4.27295 11.9477C4.39776 11.9914 4.52863 12.0152 4.66342 12.0152V10.977ZM4.61594 10.9679C4.58235 10.9561 4.55545 10.9422 4.53326 10.9273L3.95417 11.7889C4.05364 11.8558 4.16055 11.9083 4.27295 11.9477L4.61594 10.9679ZM4.5827 10.965L1.13379 7.99082L0.455828 8.77698L3.90473 11.7512L4.5827 10.965ZM1.13379 8.77698L4.5827 5.80276L3.90473 5.01659L0.455828 7.99082L1.13379 8.77698ZM4.5776 5.80709C4.60622 5.78305 4.62804 5.77542 4.66342 5.77542V4.7373C4.3825 4.7373 4.12452 4.83188 3.90983 5.01226L4.5776 5.80709ZM4.66342 5.77542C4.69881 5.77542 4.72063 5.78305 4.74924 5.80709L5.41702 5.01226C5.20232 4.83188 4.94434 4.7373 4.66342 4.7373V5.77542ZM4.74924 5.80709C4.75413 5.8112 4.74593 5.80542 4.73765 5.78803C4.73384 5.78003 4.73127 5.77213 4.72978 5.76524C4.72832 5.75849 4.7283 5.75461 4.7283 5.75462H5.76642C5.76642 5.45702 5.63899 5.19874 5.41702 5.01226L4.74924 5.80709ZM4.7283 5.75462C4.7283 5.75463 4.72832 5.75076 4.72978 5.74401C4.73127 5.73712 4.73384 5.72921 4.73765 5.72121C4.74593 5.70383 4.75413 5.69805 4.74924 5.70215L5.41702 6.49699C5.63899 6.31051 5.76642 6.05222 5.76642 5.75462H4.7283ZM4.74924 5.70215L2.63245 7.48056L3.30023 8.27539L5.41702 6.49699L4.74924 5.70215ZM2.96634 8.39703H13.0393V7.35891H2.96634V8.39703ZM13.0393 8.39703C13.0779 8.39703 13.0997 8.40222 13.1099 8.40557C13.1189 8.40853 13.1226 8.4112 13.1252 8.41337L13.7929 7.61853C13.5728 7.43359 13.3074 7.35891 13.0393 7.35891V8.39703ZM13.1252 8.41337C13.1271 8.41498 13.1256 8.41401 13.1224 8.40995C13.1191 8.40576 13.1152 8.39976 13.1117 8.39225C13.1082 8.38474 13.1061 8.3779 13.105 8.37274C13.104 8.36773 13.1042 8.366 13.1042 8.36857H14.1423C14.1423 8.07227 14.0199 7.80922 13.7929 7.61853L13.1252 8.41337ZM13.1042 8.36857C13.1042 8.3659 13.1045 8.36038 13.1062 8.35292C13.1078 8.34538 13.1104 8.33795 13.1136 8.33133C13.1202 8.31729 13.125 8.31597 13.1146 8.32517L13.8034 9.10187C14.0114 8.91744 14.1423 8.66598 14.1423 8.36857H13.1042ZM13.1146 8.32517C13.1114 8.32808 13.1084 8.33011 13.1018 8.33238C13.0941 8.33505 13.0751 8.3401 13.0393 8.3401V9.37822C13.3145 9.37822 13.5837 9.29675 13.8034 9.10187L13.1146 8.32517ZM13.0393 8.3401H2.92985V9.37822H13.0393V8.3401ZM18.3131 1.03812C18.5172 1.03812 18.6729 1.09592 18.8056 1.20444L19.4629 0.400925C19.1333 0.131281 18.7415 0 18.3131 0V1.03812ZM18.8056 1.20444C18.9275 1.30419 18.9619 1.39402 18.9619 1.50025H20C20 1.05455 19.8032 0.679348 19.4629 0.400925L18.8056 1.20444ZM18.9619 1.50025V15.2369H20V1.50025H18.9619ZM18.9619 15.2369C18.9619 15.3431 18.9275 15.4329 18.8056 15.5327L19.4629 16.3362C19.8032 16.0578 20 15.6826 20 15.2369H18.9619ZM18.8056 15.5327C18.6729 15.6412 18.5172 15.699 18.3131 15.699V16.7371C18.7415 16.7371 19.1333 16.6058 19.4629 16.3362L18.8056 15.5327ZM18.3131 15.699H8.38605V16.7371H18.3131V15.699ZM8.38605 15.699C8.16443 15.699 8.01011 15.6382 7.88965 15.537L7.22187 16.3319C7.55153 16.6088 7.95073 16.7371 8.38605 16.7371V15.699ZM7.88965 15.537C7.77324 15.4392 7.73723 15.3485 7.73723 15.2369H6.69911C6.69911 15.6772 6.88815 16.0515 7.22187 16.3319L7.88965 15.537ZM7.73723 15.2369V10.8062H6.69911V15.2369H7.73723ZM7.21817 11.3253H8.38605V10.2871H7.21817V11.3253ZM7.86699 10.8062V14.639H8.90511V10.8062H7.86699ZM7.86699 14.639C7.86699 14.975 8.02023 15.2549 8.26202 15.458L8.92979 14.6632C8.90552 14.6428 8.90165 14.6326 8.90319 14.6357C8.90378 14.6369 8.90454 14.6389 8.90501 14.6409C8.90546 14.6429 8.90511 14.6426 8.90511 14.639H7.86699ZM8.26202 15.458C8.50183 15.6595 8.78955 15.7559 9.09773 15.7559V14.7178C9.01661 14.7178 8.96979 14.6968 8.92979 14.6632L8.26202 15.458ZM9.09773 15.7559H17.6014V14.7178H9.09773V15.7559ZM17.6014 15.7559C17.9095 15.7559 18.199 15.6593 18.4366 15.4506L17.7515 14.6706C17.7215 14.697 17.6826 14.7178 17.6014 14.7178V15.7559ZM18.4366 15.4506C18.6714 15.2444 18.8139 14.9662 18.8139 14.639H17.7757C17.7757 14.6442 17.7752 14.6462 17.7753 14.6458C17.7754 14.6452 17.7757 14.6444 17.776 14.6439C17.7769 14.642 17.7731 14.6516 17.7515 14.6706L18.4366 15.4506ZM18.8139 14.6382L18.7956 2.0974L17.7575 2.09891L17.7758 14.6397L18.8139 14.6382ZM18.7956 2.09816C18.7956 1.77093 18.6531 1.49277 18.4184 1.28657L17.7333 2.06654C17.7549 2.0855 17.7586 2.09511 17.7577 2.09324C17.7575 2.09275 17.7572 2.09189 17.7571 2.09137C17.757 2.09095 17.7575 2.0929 17.7575 2.09816H18.7956ZM18.4184 1.28657C18.1807 1.07786 17.8912 0.981188 17.5831 0.981188V2.01931C17.6643 2.01931 17.7033 2.04017 17.7333 2.06654L18.4184 1.28657ZM17.5831 0.981188H9.09773V2.01931H17.5831V0.981188ZM9.09773 0.981188C8.78955 0.981188 8.50183 1.07766 8.26202 1.27914L8.92979 2.07397C8.96979 2.04037 9.01661 2.01931 9.09773 2.01931V0.981188ZM8.26202 1.27914C8.02023 1.48227 7.86699 1.76214 7.86699 2.09816H8.90511C8.90511 2.09455 8.90546 2.09424 8.90501 2.09619C8.90454 2.09823 8.90378 2.10021 8.90319 2.1014C8.90165 2.10449 8.90552 2.09437 8.92979 2.07397L8.26202 1.27914ZM7.86699 2.09816V5.91559H8.90511V2.09816H7.86699ZM8.38605 5.39653H7.21817V6.43465H8.38605V5.39653ZM7.73723 5.91559V1.50025H6.69911V5.91559H7.73723ZM7.73723 1.50025C7.73723 1.38866 7.77324 1.2979 7.88965 1.2001L7.22187 0.405265C6.88815 0.685637 6.69911 1.05992 6.69911 1.50025H7.73723ZM7.88965 1.2001C8.01011 1.09889 8.16443 1.03812 8.38605 1.03812V0C7.95073 0 7.55153 0.128307 7.22187 0.405265L7.88965 1.2001ZM8.38605 1.03812H18.3131V0H8.38605V1.03812Z" fill="white"/>
</svg>
