<svg width="25" height="36" viewBox="0 0 25 36" fill="none" xmlns="http://www.w3.org/2000/svg">
<path d="M20.0858 35.9979C15.6432 35.9979 10.6084 35.611 6.23443 32.0457C0.0363668 26.9961 -1.46281 21.578 1.39185 14.5027V4.57955C1.39185 4.29396 1.49802 4.02065 1.68656 3.82718C1.87602 3.63372 2.12588 3.53442 2.38398 3.55899L6.33877 3.92852C6.84215 3.97561 7.21649 4.47105 7.17439 5.03405C7.13229 5.59705 6.68565 6.01162 6.18592 5.96862L3.22143 5.69224V14.7258C3.22143 14.8753 3.19214 15.0206 3.13631 15.1557C0.536092 21.4449 1.74514 25.8578 7.31168 30.3915C10.9955 33.3959 15.1068 33.9783 20.5535 33.9507C22.0206 33.9425 22.5094 33.4255 22.7327 31.6485C23.3422 26.8078 21.5758 22.6252 19.7682 19.1725C19.5138 18.6842 19.6602 18.0577 20.0949 17.7732C20.5297 17.4855 21.0917 17.6503 21.347 18.1376C23.313 21.8943 25.2322 26.472 24.5449 31.9351C24.3069 33.8176 23.6415 35.9805 20.5617 36C20.4043 35.9979 20.245 35.9979 20.0858 35.9979Z" fill="#6266EA"/>
<path fill-rule="evenodd" clip-rule="evenodd" d="M20.0841 19.4253C20.1491 19.4417 20.2168 19.4489 20.2818 19.4489C20.6726 19.4489 21.0305 19.1674 21.1522 18.7364C21.9851 15.8098 20.5079 14.0502 19.3217 12.6376C18.9986 12.2558 18.692 11.8893 18.4385 11.5188C19.0078 11.3581 19.7034 11.2117 20.5527 11.0837C21.0067 11.0151 21.3453 10.5811 21.3453 10.0693V6.68313C21.3453 6.17336 21.0113 5.74139 20.56 5.66973L15.0704 4.79248C14.5707 4.71468 14.1066 5.10264 14.0352 5.66154C13.9638 6.22147 14.3116 6.73943 14.8114 6.81927L19.5167 7.57062V9.18591C16.3041 9.76836 14.1798 10.8473 14.0279 13.7411C13.8467 17.2788 15.7495 18.3546 20.0841 19.4253ZM15.8556 13.8588C15.884 13.3183 16.0048 12.7696 16.6867 12.2793C16.7013 12.31 16.7169 12.3407 16.7343 12.3684C17.0995 12.9805 17.5507 13.5179 17.9891 14.0379C18.9757 15.2131 19.6036 16.032 19.5651 17.1866C15.9124 16.1794 15.7788 15.3584 15.8556 13.8588Z" fill="#6266EA"/>
<path fill-rule="evenodd" clip-rule="evenodd" d="M0.643521 22.6334C0.818333 22.9374 1.11304 23.1032 1.41416 23.1032C1.58348 23.1032 1.75463 23.05 1.91205 22.9394C2.27998 22.6743 2.64608 22.4061 3.01127 22.1369L3.01954 22.1308C3.81324 21.5462 4.63412 20.9415 5.45773 20.4059C7.14636 19.3086 8.65652 18.0608 8.59611 14.9162C8.56866 13.4493 8.8835 11.4686 10.5456 10.3528C11.7349 9.55597 12.7876 8.61139 13.9007 7.61262L13.9201 7.59517L13.9873 7.53479C14.4441 7.12446 14.9065 6.70916 15.3854 6.3013C15.617 6.10271 15.7515 5.7946 15.7469 5.46908C15.7442 5.30223 15.7058 5.1405 15.6362 4.99719L16.5478 1.61306C16.6887 1.09407 16.4425 0.543358 15.9877 0.35501C13.0471 -0.85346 12.1013 1.2962 11.4743 2.72111L11.4737 2.72267L11.3794 2.93457C11.1789 3.38497 11.3016 3.93159 11.6677 4.22332L13.3005 5.52436C13.1535 5.65489 13.0071 5.78682 12.8623 5.91726C12.8323 5.94434 12.8023 5.97137 12.7724 5.9983L12.7551 6.01382C11.6916 6.96724 10.6852 7.86936 9.60289 8.59731C7.71656 9.86252 6.70887 12.1227 6.7647 14.9612C6.80131 16.855 6.13684 17.595 4.53516 18.6381C3.68941 19.1876 2.86954 19.7901 2.07302 20.3754L2.00083 20.4285L1.9451 20.4694C1.60389 20.7199 1.26182 20.9711 0.918095 21.2177C0.49342 21.5248 0.370777 22.1564 0.643521 22.6334ZM14.085 3.63884L13.3638 3.06458C13.7043 2.3378 13.9624 2.00205 14.517 2.03993L14.085 3.63884Z" fill="#6266EA"/>
<path d="M7.28438 16.251C7.06014 16.251 6.83682 16.1599 6.66018 15.9746C3.42203 12.5997 2.97356 10.0273 4.94683 6.14774L5.15093 5.75569C5.45388 5.18041 5.7971 4.53143 5.80625 4.06772C5.8273 2.91511 6.11103 2.0788 6.67207 1.50864C7.44637 0.725556 8.53644 0.711225 9.3986 0.785951C9.9029 0.829967 10.28 1.32233 10.2406 1.88636C10.2013 2.44936 9.76653 2.86086 9.25674 2.82708C8.53827 2.76361 8.09437 2.82912 7.90217 3.02566C7.69624 3.23448 7.64407 3.72992 7.63766 4.11071C7.61844 5.11285 7.14526 6.00751 6.72882 6.7957L6.53845 7.16012C4.98527 10.2167 5.26625 11.7214 7.90949 14.476C8.27925 14.8609 8.3003 15.5099 7.95617 15.9224C7.77312 16.1415 7.52875 16.251 7.28438 16.251Z" fill="#6266EA"/>
<path d="M9.83702 6.54284C9.3318 6.54284 8.92177 6.08527 8.92177 5.5192V1.19947C8.92177 0.910805 9.03069 0.636471 9.22106 0.441981C9.41143 0.249538 9.66953 0.157411 9.92306 0.179931L12.9864 0.502375C13.4898 0.555604 13.8586 1.05411 13.811 1.61711C13.7634 2.17909 13.3223 2.59366 12.8143 2.53941L10.7523 2.3224V5.51818C10.7523 6.08527 10.3422 6.54284 9.83702 6.54284Z" fill="#6266EA"/>
</svg>
